<svg xmlns="http://www.w3.org/2000/svg" viewBox="0 0 323.3 336.95"><title>gohan</title><rect x="136" y="299.95" width="95" height="31" style="fill:#d1eeff;stroke:#87312e;stroke-linecap:round;stroke-linejoin:round;stroke-width:12px"/><path d="M102.53,204S105,190,111,182s28-5,28-5,1-13,10-18,27,0,27,0a23.83,23.83,0,0,1,24-9c16,3,17,14,17,14s14-5,24,0,11,18,11,18,13,0,16,5c0,0,3,5,0,15" style="fill:#fff7ed;stroke:#87312e;stroke-linecap:round;stroke-linejoin:round;stroke-width:12px"/><path d="M94,204H273S284,307,184,308,94,204,94,204Z" style="fill:#d1eeff;stroke:#87312e;stroke-linecap:round;stroke-linejoin:round;stroke-width:12px"/><path d="M26.16,107.56S27.35,153.81,6,157.37c0,0,28.47,4.75,32,35.58,0,0,1.19-34.39,19-42.69C57,150.26,30.91,140.77,26.16,107.56Z" style="fill:#ffe41a;stroke:#87312e;stroke-linecap:round;stroke-linejoin:round;stroke-width:12px"/><path d="M286.47,6s1.18,46.26-20.17,49.81c0,0,28.47,4.75,32,35.59,0,0,1.18-34.4,19-42.7C317.3,48.7,291.21,39.21,286.47,6Z" style="fill:#ffe41a;stroke:#87312e;stroke-linecap:round;stroke-linejoin:round;stroke-width:12px"/></svg>