<svg xmlns="http://www.w3.org/2000/svg" viewBox="0 0 1467.32 659.36"><title>logo_1</title><polygon points="231.57 69.54 149.85 266.61 204.77 294.03 183.24 435.54 301.86 242.9 237.28 197.71 231.57 69.54" style="fill:#ffc640;stroke:#603813;stroke-linejoin:round;stroke-width:16px"/><polygon points="1247.07 132 1275.4 8 1300.07 110 1361.29 87 1298.24 183 1270.83 303 1255.3 192 1181.29 220 1247.07 132" style="fill:#ffc640;stroke:#603813;stroke-linejoin:round;stroke-width:16px"/><text transform="matrix(1, -0.09, 0.09, 1, 314.17, 303.61)" style="font-size:223.5821075439453px;fill:#603813;font-family:BrushScriptMT, Brush Script MT">tring</text><text transform="matrix(1, -0.09, 0.09, 1, 699.91, 278.51)" style="font-size:223.5821075439453px;fill:#603813;font-family:BrushScriptMT, Brush Script MT">Connec</text><path d="M78.42,513.54s226.78-82.93,265-46S65.76,665.51,10.06,650.36s1031.14-418,1430.33-402.53" style="fill:none;stroke:#603813;stroke-linecap:round;stroke-linejoin:round;stroke-width:16px"/><path d="M1385.44,313c-22,.68,10.44-100.5,10.44-100.5,15.33-3.88,71.4,24.33,71.44,37.37Z" style="fill:#603813"/></svg>