<svg xmlns="http://www.w3.org/2000/svg" viewBox="0 0 437.03 438.4"><title>アセット 1</title><path d="M431,351.9c0,44.46-95.14,80.5-212.5,80.5S7,396.35,6,351.9c-2-94.5,95.14-80.5,212.5-80.5S431,261.4,431,351.9Z" style="fill:#edccad;stroke:#87312e;stroke-miterlimit:10;stroke-width:12px"/><path d="M131,165.4s-33,34-40,61-15,50,8,65,64,3,64,3,119.08,3.39,132,2c37-4,47.41-13.29,53-24,12-23-2-47-9-62-6-12.88-21-31-33-40-7.88-5.91-16-13-16-13Z" style="fill:#ffa15c;stroke:#87312e;stroke-linecap:round;stroke-linejoin:round;stroke-width:12px"/><path d="M305.53,122.9c.5,57.5-42.31,85-94.5,85s-94-19.5-94.5-85c-.36-46.95,42.31-85,94.5-85S305.12,76,305.53,122.9Z" style="fill:#ffefde"/><path d="M117,150.4c-13.11,1.21-11.85-59,3.39-89S148,32.4,148,32.4s-6.66-14,0-23,18.09-8,26.66,3c0,0,5.71-15,18.09-12s13.33,15,13.33,15,34.28-18,80,15,29.52,97,27.62,102-8.57,2-11.43-1-30.47-21-30.47-21-2.85,8-16.18,9-59.6-11-71.6-26c0,0-16,30-36,30-15.23,0-20,2-20,2C120.41,131.4,131.14,149.1,117,150.4Z" style="fill:#6e4e3e"/><path d="M176,160.4c1,18.52-3.81,20-8.5,20s-8.5,0-8.5-20c0-11.05,0-20,8.5-20S175.43,149.36,176,160.4Z" style="fill:#6e4e3e"/><path d="M265.58,159.43c1,18.52-3.8,20-8.5,20s-8.5,0-8.5-20c0-11.05,0-20,8.5-20S265,148.39,265.58,159.43Z" style="fill:#6e4e3e"/><path d="M199,184.84s13.29,9.41,31-1.44" style="fill:none;stroke:#6e4e3e;stroke-linecap:round;stroke-miterlimit:10;stroke-width:12px"/><path d="M211,379a5.2,5.2,0,0,1-8.36,4.14A52.74,52.74,0,0,0,170,372.4c-13.3,0-24.12,5.64-31.81,11.56a5.21,5.21,0,0,1-8.26-5.41l11.67-44.62a5.17,5.17,0,0,1,1.67-2.66c6-5.09,32.85-24.87,65.21-5.46a5.2,5.2,0,0,1,2.52,4.47Z" style="fill:#fff"/><path d="M211,379.5a5.2,5.2,0,0,0,8.41,4.1c8-6.32,21-14.2,36.59-14.2,14.42,0,29.16,6.77,39.42,12.8a5.21,5.21,0,0,0,7.5-6.38l-18.07-46.24a5.19,5.19,0,0,0-3.09-3c-6.67-2.39-26.93-9.17-41.76-9.17a47,47,0,0,0-26.79,8.29,5.18,5.18,0,0,0-2.21,4.25Z" style="fill:#fff"/><ellipse cx="175.03" cy="286.4" rx="24" ry="20" style="fill:#ffefde"/><ellipse cx="249.03" cy="286.4" rx="24" ry="20" style="fill:#ffefde"/></svg>