<svg xmlns="http://www.w3.org/2000/svg" viewBox="0 0 463 322.04"><title>tsunagaru</title><polygon points="236 135 252 196 292 280 354.37 248.67 365.87 219.55 366 205 450.61 164.06 380.27 48.96 236 135" style="fill:#ffe4cf"/><path d="M457,161l-92,44s8,37-22,52-77,30-77,30" style="fill:none;stroke:#87312e;stroke-linecap:round;stroke-linejoin:round;stroke-width:12px"/><path d="M6,69l90,99s-23,66,0,88,57,10,57,10l13-8s51,57,73,58,47-18,51-36,5-54-46-128S104,6,104,6" style="fill:#ffe4cf;stroke:#87312e;stroke-linecap:round;stroke-linejoin:round;stroke-width:12px"/><path d="M295,158c-46,17-69-5-69-5-12,10-31,16-39,16s-55-13-11-59S310,85,310,85l78-40" style="fill:#ffe4cf;stroke:#87312e;stroke-linecap:round;stroke-linejoin:round;stroke-width:12px"/><path d="M119,227s14,44,47,66,46.35,23.9,53.68,14.45S210,274,205,270s-51-54-64-54S121,211,119,227Z" style="fill:#ffe4cf;stroke:#87312e;stroke-linecap:round;stroke-linejoin:round;stroke-width:12px"/><path d="M211,247s37.21,52.86,38.61,65.43" style="fill:#ffe4cf;stroke:#87312e;stroke-linecap:round;stroke-linejoin:round;stroke-width:12px"/><path d="M230,237s37,51.08,38,67.54" style="fill:#ffe4cf;stroke:#87312e;stroke-linecap:round;stroke-linejoin:round;stroke-width:12px"/><path d="M252,229s28.87,42,32.44,56" style="fill:#ffe4cf;stroke:#87312e;stroke-linecap:round;stroke-linejoin:round;stroke-width:12px"/><path d="M131.13,253.52S139.89,225,155.94,224" style="fill:#ffe4cf;stroke:#87312e;stroke-linecap:round;stroke-linejoin:round;stroke-width:12px"/><path d="M148.53,277.91S158,242,173,243" style="fill:#ffe4cf;stroke:#87312e;stroke-linecap:round;stroke-linejoin:round;stroke-width:12px"/><path d="M174.64,298.58s3.16-35.43,22.76-36" style="fill:#ffe4cf;stroke:#87312e;stroke-linecap:round;stroke-linejoin:round;stroke-width:12px"/></svg>